<svg width="18" height="18" viewBox="0 0 18 18" fill="none" xmlns="http://www.w3.org/2000/svg">
<path d="M11.6675 8.11168V8.12057M2.93239 5.78101C2.54253 5.48137 2.2431 5.07977 2.0672 4.62059C1.89131 4.16141 1.8458 3.66255 1.9357 3.17912C2.0256 2.6957 2.24741 2.24654 2.57662 1.8813C2.90583 1.51605 3.32962 1.24894 3.80114 1.10949C4.27266 0.970038 4.77356 0.963673 5.24848 1.0911C5.72339 1.21853 6.15383 1.47478 6.49222 1.83154C6.8306 2.1883 7.06375 2.63168 7.16591 3.11266C7.26806 3.59365 7.23524 4.09351 7.07107 4.55701" stroke="#686767" stroke-width="2" stroke-linecap="round" stroke-linejoin="round"/>
<path d="M12.5564 1.88965V5.2701C13.6565 5.90665 14.4941 6.91405 14.9191 8.11188H16.1111C16.3469 8.11188 16.5729 8.20553 16.7396 8.37223C16.9063 8.53893 17 8.76502 17 9.00077V10.7786C17 11.0143 16.9063 11.2404 16.7396 11.4071C16.5729 11.5738 16.3469 11.6674 16.1111 11.6674H14.9182C14.6196 12.5119 14.112 13.2674 13.4444 13.8657V15.6675C13.4444 16.0211 13.304 16.3602 13.0539 16.6103C12.8039 16.8603 12.4647 17.0008 12.1111 17.0008C11.7575 17.0008 11.4183 16.8603 11.1683 16.6103C10.9182 16.3602 10.7778 16.0211 10.7778 15.6675V15.1492C10.484 15.1984 10.1867 15.2231 9.88888 15.223H6.33331C6.03548 15.2231 5.73816 15.1984 5.44442 15.1492V15.6675C5.44442 16.0211 5.30395 16.3602 5.0539 16.6103C4.80385 16.8603 4.46471 17.0008 4.11109 17.0008C3.75747 17.0008 3.41833 16.8603 3.16828 16.6103C2.91823 16.3602 2.77775 16.0211 2.77775 15.6675V13.8897L2.77864 13.8657C1.97333 13.1457 1.40563 12.1981 1.15068 11.1484C0.895721 10.0987 0.965533 8.99633 1.35087 7.98716C1.73621 6.978 2.41891 6.10963 3.30861 5.49699C4.19832 4.88435 5.25308 4.55633 6.33331 4.55632H8.55554L12.5555 1.88965H12.5564Z" stroke="#686767" stroke-width="2" stroke-linecap="round" stroke-linejoin="round"/>
</svg>
