<svg width="22" height="22" viewBox="0 0 22 22" fill="none" xmlns="http://www.w3.org/2000/svg">
<path d="M17.4731 3.9897L17.0581 4.61377C16.9965 4.70543 15.6504 6.74777 15.1899 9.02L14.3348 7.57387C15.3864 6.66197 15.734 4.88363 15.0803 3.212C14.3249 1.27857 12.3112 0.330733 12.225 0.291133L11.594 0L11.8705 0.6501C11.8723 0.6545 11.9244 0.7865 11.9658 1.01347C11.5935 0.755205 11.2067 0.518323 10.8075 0.303967L10.5365 0.1639L10.4353 0.457233C10.4262 0.4851 10.241 1.0296 10.0775 1.7974C10.0089 1.69388 9.95085 1.58384 9.90403 1.46887L9.66387 0.800067L9.40463 1.4619C9.36943 1.551 8.55507 3.67363 9.3104 5.60743C9.3236 5.64153 9.3401 5.67343 9.35403 5.7068C9.29683 5.65657 9.2411 5.6056 9.1806 5.5572C7.57387 4.27973 5.36763 4.50377 5.27487 4.51403L4.58553 4.5892L5.14507 5.00757C5.14873 5.0105 5.25983 5.09703 5.40687 5.27157C4.6442 5.22317 4.08577 5.2569 4.05717 5.2591L3.75393 5.27853L3.8115 5.58433C3.817 5.61293 3.92627 6.17833 4.16423 6.9256C4.05437 6.87143 3.9501 6.80658 3.85293 6.732L3.31503 6.2788L3.4177 6.9839C3.42943 7.0664 3.68977 8.75123 4.79087 10.0331C2.78007 9.78047 1.00247 11.1148 0.928033 11.1723L0.372533 11.5955L1.06187 11.664C1.06627 11.6648 1.2045 11.6816 1.41863 11.755C1.01659 11.9638 0.626577 12.1951 0.250433 12.4476L0 12.6229L0.200933 12.8553C0.22 12.8777 0.595833 13.3067 1.1726 13.8259C1.05102 13.8366 0.928662 13.835 0.8074 13.8211L0.119533 13.7115L0.559167 14.2644C0.6182 14.3396 2.0361 16.0985 4.05423 16.3607C5.20337 16.5099 6.32463 16.2265 7.13277 15.5837C7.61127 15.2024 7.94053 14.7092 8.1004 14.1669L9.56303 14.4261C8.1653 15.059 7.30143 15.7634 6.80753 16.269C6.50687 16.5766 6.3756 16.7801 6.37047 16.7886L6.1457 17.1395L8.46487 16.7328L8.02303 17.1871C8.02303 17.1871 13.2304 16.2855 16.3247 18.5042L15.6732 19.1752L17.0038 20.5451L17.5336 19.9998C17.8673 20.8813 18.0591 22 18.0591 22L19.074 20.9609L19.7806 21.6843L21.6894 19.7303L20.9829 19.0073L22 17.9659C22 17.9659 20.9059 17.7624 20.046 17.4148L20.5766 16.8685L19.2456 15.4986L18.5929 16.17C16.4362 12.9855 17.3133 7.6263 17.3133 7.6263L16.9921 7.9574L17.4731 3.9897ZM10.8434 0.946733C11.2452 1.1802 11.6338 1.43579 12.0072 1.71233C11.9889 2.09367 11.9013 2.55823 11.6728 3.07523C11.161 2.8666 10.7873 2.59527 10.5186 2.33493C10.622 1.7534 10.7547 1.24923 10.8434 0.946733ZM12.5198 1.08203C13.1322 1.47217 14.1306 2.25317 14.5845 3.41513C15.2533 5.12783 14.7477 6.9564 13.4581 7.49137C13.4065 7.51281 13.3535 7.53057 13.2994 7.54453L13.299 7.5449C12.595 7.73337 11.711 7.3843 11.2882 6.7507C10.8379 6.0764 10.9575 5.1865 11.6255 4.24417C12.5543 2.93003 12.6093 1.7688 12.5198 1.08203ZM12.958 8.19647L13.6099 9.8043C13.2733 9.33277 12.991 8.7791 12.7545 8.22103C12.8231 8.21627 12.8902 8.20563 12.958 8.19647ZM9.80687 5.4032C9.35367 4.24343 9.54873 2.9634 9.7273 2.24217C10.0217 2.6532 10.5486 3.19183 11.4242 3.5618C11.3542 3.68023 11.2779 3.80013 11.191 3.9226C10.2659 5.22977 10.417 6.2062 10.6913 6.78443C10.3063 6.38844 10.0054 5.91859 9.80687 5.4032ZM11.1463 7.82173C11.2196 8.7879 11.4913 9.9231 12.1708 11.0979L10.5824 9.97443C10.9417 9.2125 10.9237 8.29143 10.5776 7.41913C10.758 7.5713 10.9468 7.7088 11.1463 7.82173ZM12.9019 12.0589L12.3141 12.6606L10.1013 10.688C10.153 10.6304 10.2051 10.5739 10.2516 10.5123L10.292 10.4529C10.2997 10.443 10.3092 10.4335 10.3169 10.424C10.3488 10.3814 10.3745 10.336 10.4034 10.292L12.9019 12.0589ZM5.9191 5.04423C6.64033 5.0644 7.887 5.2217 8.85243 5.9895C10.2755 7.12103 10.7419 8.9606 9.8934 10.0896C9.85911 10.1345 9.82213 10.1774 9.78267 10.2179C9.26787 10.7452 8.33287 10.9006 7.6549 10.5732C6.93367 10.2245 6.59707 9.39437 6.70817 8.23607C6.86143 6.62127 6.3349 5.5902 5.9191 5.04423ZM10.7375 11.7392C10.3789 11.5219 10.0251 11.2968 9.67633 11.0642C9.73647 11.0224 9.78963 10.9725 9.84537 10.9256C9.8417 10.9285 9.83913 10.9325 9.83583 10.9351L10.7375 11.7392ZM4.40587 5.79443C4.71167 5.7893 5.21657 5.79627 5.78783 5.85273C5.96127 6.19117 6.11453 6.63777 6.17283 7.2017C5.6276 7.28603 5.17147 7.2457 4.81067 7.16027C4.65138 6.71256 4.51625 6.25663 4.40587 5.79443ZM4.08283 7.48953C4.53897 7.6923 5.2602 7.88407 6.19813 7.75023C6.1963 7.8892 6.19007 8.03257 6.1754 8.18253C6.02213 9.78927 6.63447 10.5538 7.15697 10.9102C7.0279 10.8761 6.9003 10.8343 6.77307 10.7859C6.50488 10.5972 6.21558 10.4406 5.91103 10.3191C5.8443 10.2718 5.77647 10.2282 5.71157 10.1761C4.7476 9.4094 4.28413 8.20417 4.08283 7.48953ZM7.5856 11.5478C7.83127 11.5749 8.07547 11.5753 8.316 11.5522C8.58802 11.9947 8.88513 12.4212 9.2059 12.8297L8.1675 12.7864C8.07107 12.3344 7.87197 11.9106 7.5856 11.5478ZM0.8173 12.727C1.21085 12.4814 1.61761 12.2577 2.03573 12.0567C2.35327 12.2584 2.70673 12.562 3.0382 13.0178C2.61103 13.3742 2.19817 13.5773 1.84543 13.6913C1.48526 13.389 1.14203 13.0671 0.8173 12.727ZM4.1217 15.8169C2.91097 15.6596 1.9118 14.8639 1.38233 14.3543C1.87623 14.2905 2.59197 14.0804 3.33227 13.4761C3.40047 13.596 3.46573 13.7229 3.52843 13.8593C4.1954 15.3223 5.1029 15.6607 5.73027 15.6959C5.2316 15.8437 4.6827 15.8899 4.1217 15.8169ZM7.64573 13.7306V13.7313C7.4646 14.4529 6.73787 15.0744 5.99133 15.1455C5.19713 15.2211 4.4946 14.6824 4.01317 13.6272C3.34143 12.1579 2.376 11.546 1.7457 11.2926C2.37637 10.9336 3.5277 10.4199 4.74063 10.5769C5.06293 10.6187 5.3691 10.6975 5.65473 10.8053C5.9378 11 6.2348 11.1602 6.53987 11.2816C7.32197 11.8547 7.78067 12.6947 7.67727 13.5634C7.66993 13.6195 7.66003 13.6752 7.64573 13.7306ZM8.74537 16.313L6.96703 16.625C7.46057 16.0948 8.4788 15.231 10.2648 14.5237L10.6385 14.3763L8.74537 16.313ZM10.747 14.2648L8.18253 13.8105C8.18657 13.787 8.19243 13.7636 8.19573 13.7401L8.20123 13.6686C8.2027 13.6554 8.20783 13.6426 8.20857 13.6297C8.22763 13.4699 8.2269 13.3115 8.21663 13.1538L10.0096 13.2297L9.7372 12.9096C9.33827 12.4417 8.99213 11.9464 8.70137 11.4851C8.91978 11.4378 9.13193 11.3652 9.3335 11.2688C10.2075 11.8599 11.1128 12.4035 12.0454 12.8971L12.0707 12.9103L10.747 14.2648ZM21.1842 19.7311L19.7802 21.1684L19.327 20.702L20.7317 19.2647L21.1842 19.7311ZM19.2456 16.0164L20.0735 16.8685L17.0034 20.0273L16.1759 19.1752L19.2456 16.0164ZM13.1072 11.8485L12.9866 11.686C12.0212 10.3811 11.6362 9.08967 11.521 8.00323C11.7889 8.11656 12.0724 8.18888 12.3618 8.21773C12.7655 9.20443 13.3166 10.2032 14.0488 10.8324L14.0767 10.8566L13.1072 11.8485ZM14.3216 10.6062L13.3148 8.12387C13.3969 8.10003 13.4783 8.07363 13.5582 8.041L13.6224 8.0113C13.6341 8.00617 13.6473 8.00397 13.6594 7.99883C13.7945 7.94105 13.9242 7.87148 14.047 7.79093L15.1873 9.72033L14.3216 10.6062ZM15.4803 9.41967C15.7263 7.88883 16.4534 6.38917 16.9261 5.53667L16.5931 8.28043L15.4803 9.41967Z" fill="#5b6dae"/>
</svg>
